<svg width="42" height="43" viewBox="0 0 42 43" fill="none" xmlns="http://www.w3.org/2000/svg">
<path d="M36.0345 5.99282C32.1873 2.12808 27.0735 0 21.6325 0C21.6322 0 21.6309 0 21.6306 0C18.9396 0.0003219 16.3172 0.523732 13.8367 1.55607C11.3559 2.5884 9.13335 4.08105 7.23029 5.99282C3.38347 9.85723 1.26508 14.9954 1.26508 20.4606C1.26508 23.7199 2.0479 26.9588 3.53119 29.8447L0.107671 39.6697C-0.133616 40.3628 0.0371752 41.116 0.554357 41.6352C0.916127 41.999 1.39229 42.1921 1.88192 42.1921C2.0918 42.1921 2.30393 42.1567 2.51093 42.084L12.2912 38.6451C15.1639 40.1352 18.3881 40.9216 21.6325 40.9216C27.0729 40.9216 32.1873 38.7932 36.0345 34.9288C39.8813 31.0643 42 25.9262 42 20.4609C42 14.9954 39.8816 9.85723 36.0345 5.99282ZM34.2926 33.1789C30.911 36.5762 26.4147 38.4468 21.6325 38.4468C18.707 38.4468 15.8006 37.72 13.2275 36.3442C12.761 36.095 12.2095 36.0522 11.7145 36.2263L2.8288 39.3504L5.93894 30.4241C6.11229 29.9261 6.06936 29.3721 5.82134 28.9037C4.45212 26.3195 3.72826 23.3999 3.72826 20.4606C3.72826 15.6566 5.59063 11.1397 8.97217 7.74267C12.3534 4.34598 16.8491 2.47509 21.6309 2.47445H21.6325C26.415 2.47445 30.911 4.34533 34.2926 7.74267C37.6745 11.1397 39.5368 15.6563 39.5368 20.4606C39.5368 25.265 37.6745 29.7819 34.2926 33.1789Z" fill="white"/>
<path d="M29.2019 22.2884C28.265 21.3471 26.7403 21.3471 25.8034 22.2884L24.7786 23.3178C22.2341 21.9249 20.1749 19.8564 18.7881 17.3002L19.8128 16.2708C20.7501 15.3295 20.7501 13.7979 19.8128 12.8567L17.0513 10.0825C16.1144 9.14131 14.5898 9.14131 13.6528 10.0825L11.4437 12.3017C10.1783 13.5729 10.1152 15.7583 11.2659 18.4555C12.265 20.7973 14.0934 23.3712 16.4143 25.7028C18.7352 28.0343 21.2974 29.871 23.6286 30.8747C24.9042 31.4239 26.0645 31.6978 27.0672 31.6978C28.1749 31.6978 29.0901 31.3634 29.7543 30.6961L31.9634 28.4766V28.4769C32.4175 28.0208 32.6674 27.4146 32.6674 26.7699C32.6674 26.1248 32.4175 25.5186 31.9634 25.0628L29.2019 22.2884ZM28.0125 28.9462C27.6513 29.309 26.5407 29.4362 24.5992 28.6005C22.549 27.7179 20.2608 26.0672 18.1562 23.9529C16.0516 21.8387 14.4087 19.5403 13.5301 17.4808C12.6979 15.5304 12.8245 14.4144 13.1856 14.0516L15.3524 11.8749L18.0287 14.5637L16.746 15.8526C16.166 16.4352 16.026 17.3189 16.398 18.0515C18.0844 21.3735 20.7238 24.025 24.0307 25.7192C24.7604 26.0929 25.64 25.9526 26.2199 25.3696L27.5026 24.081L30.1792 26.7699L28.0125 28.9462Z" fill="white"/>
</svg>
